<?xml version="1.0" encoding="UTF-8"?>
<svg version="1.1" xmlns="http://www.w3.org/2000/svg" width="1024" height="1024">
<path d="M0 0 C337.92 0 675.84 0 1024 0 C1024 337.92 1024 675.84 1024 1024 C686.08 1024 348.16 1024 0 1024 C0 686.08 0 348.16 0 0 Z " fill="#F5F5F5" transform="translate(0,0)"/>
<path d="M0 0 C15.81339576 -0.4013889 30.45827418 1.52827795 45.66748047 6.06201172 C46.34520508 6.2622998 47.02292969 6.46258789 47.72119141 6.66894531 C58.55259809 9.89311928 68.88723284 13.31160545 78.66748047 19.06201172 C79.34012939 19.45557861 80.01277832 19.84914551 80.70581055 20.25463867 C103.69557784 33.80241586 124.98149062 50.44296486 139.66748047 73.06201172 C140.41712639 74.18985131 141.16714992 75.31743998 141.91748047 76.44482422 C146.30426761 83.09281389 150.39309148 89.78426393 153.66748047 97.06201172 C154.12380859 98.07521484 154.58013672 99.08841797 155.05029297 100.13232422 C161.00444176 114.14241755 165.64847 128.96114831 167.66748047 144.06201172 C167.75956787 144.70557617 167.85165527 145.34914063 167.9465332 146.01220703 C171.50550538 173.43741337 167.91566249 199.94435241 159.66748047 226.06201172 C159.45220703 226.75053223 159.23693359 227.43905273 159.01513672 228.1484375 C146.83160907 266.03290667 115.42334336 299.97281735 80.55224609 318.08300781 C78.7426988 319.02294106 76.94690531 319.98921056 75.15185547 320.95654297 C42.8158498 337.89972402 2.28216374 343.69921561 -33.33251953 335.06201172 C-34.81227555 334.7422888 -36.29277864 334.42600818 -37.77392578 334.11279297 C-45.60310733 332.41933364 -53.0125008 330.3549405 -60.33251953 327.06201172 C-61.58945251 326.52738709 -62.84735099 325.99502943 -64.10595703 325.46435547 C-83.60055233 317.19153623 -100.71506044 306.37006766 -115.86230469 291.49707031 C-117.27394255 290.11918798 -118.71483347 288.77146966 -120.15673828 287.42529297 C-131.86535758 276.25116128 -140.68981472 263.25085935 -148.33251953 249.06201172 C-148.92548828 248.06427734 -149.51845703 247.06654297 -150.12939453 246.03857422 C-162.42154457 224.88084694 -167.76210616 199.30979052 -167.33251953 175.06201172 C-166.21876953 174.95888672 -165.10501953 174.85576172 -163.95751953 174.74951172 C-162.76126953 174.52263672 -161.56501953 174.29576172 -160.33251953 174.06201172 C-157.9627194 171.10823674 -157.9627194 171.10823674 -158.33251953 167.06201172 C-161.52014319 164.93692928 -163.59764176 164.55999542 -167.33251953 164.06201172 C-169.15117684 122.16553605 -149.35616451 83.30265487 -121.89501953 52.93701172 C-110.58173655 40.67298347 -97.58903227 30.66998776 -83.33251953 22.06201172 C-82.73415283 21.70042969 -82.13578613 21.33884766 -81.51928711 20.96630859 C-77.57839981 18.6474278 -73.55859266 16.79702798 -69.33251953 15.06201172 C-68.41470703 14.66240234 -67.49689453 14.26279297 -66.55126953 13.85107422 C-44.78098888 4.52989083 -23.5737678 0.62672567 0 0 Z " fill="#E87A58" transform="translate(507.33251953125,295.93798828125)"/>
<path d="M0 0 C16.81199479 -0.26065108 31.77174566 1.16249676 48 6 C48.67772461 6.20028809 49.35544922 6.40057617 50.05371094 6.60693359 C60.88511762 9.83110756 71.21975237 13.24959373 81 19 C81.67264893 19.39356689 82.34529785 19.78713379 83.03833008 20.19262695 C106.02809738 33.74040414 127.31401015 50.38095314 142 73 C142.74964592 74.12783959 143.49966945 75.25542826 144.25 76.3828125 C148.63678714 83.03080217 152.72561101 89.72225221 156 97 C156.45632813 98.01320313 156.91265625 99.02640625 157.3828125 100.0703125 C163.33696129 114.08040583 167.98098953 128.89913659 170 144 C170.0920874 144.64356445 170.1841748 145.28712891 170.27905273 145.95019531 C173.83802491 173.37540165 170.24818202 199.88234069 162 226 C161.78472656 226.68852051 161.56945312 227.37704102 161.34765625 228.08642578 C149.1641286 265.97089495 117.75586289 299.91080563 82.88476562 318.02099609 C81.07521833 318.96092934 79.27942484 319.92719884 77.484375 320.89453125 C53.14389361 333.64827664 27.28561234 338.61469465 0 338 C0 334.04 0 330.08 0 326 C1.18851562 325.97421875 2.37703125 325.9484375 3.6015625 325.921875 C24.34101201 325.28487762 44.14831408 321.92974596 63 313 C64.051875 312.54625 65.10375 312.0925 66.1875 311.625 C67.280625 311.13 68.37375 310.635 69.5 310.125 C71.03140625 309.44824219 71.03140625 309.44824219 72.59375 308.7578125 C75.3179691 307.15528254 75.3179691 307.15528254 75.84375 303.8046875 C75.92109375 302.41636719 75.92109375 302.41636719 76 301 C69.79594619 299.74562846 66.58170942 300.12707326 61.1875 303.5625 C47.46850702 311.51538728 32.70604683 314.93500336 17 316 C16.21125488 316.05494629 15.42250977 316.10989258 14.60986328 316.16650391 C9.74196638 316.49542897 4.8734385 316.76822195 0 317 C0 312.38 0 307.76 0 303 C2.6915625 302.9071875 2.6915625 302.9071875 5.4375 302.8125 C22.92454889 301.51781991 40.28348268 297.9031407 56 290 C56.67853027 289.65952637 57.35706055 289.31905273 58.05615234 288.96826172 C71.15012107 282.25994589 86.31695191 273.15234721 95 261 C95.43358818 257.8419244 95.43358818 257.8419244 95 255 C93.89655899 253.68653075 93.89655899 253.68653075 91.1484375 253.703125 C88.00671954 253.69036314 88.00671954 253.69036314 86.2265625 255.546875 C85.69804688 256.27390625 85.16953125 257.0009375 84.625 257.75 C67.96879916 277.80671066 40.14959757 289.82838583 14.62646484 292.22265625 C9.75052858 292.59146575 4.88923226 292.79628199 0 293 C0 287.72 0 282.44 0 277 C2.454375 276.9175 4.90875 276.835 7.4375 276.75 C19.71182007 276.13790109 32.06113333 273.78776014 43 268 C43.96808594 267.53078125 44.93617188 267.0615625 45.93359375 266.578125 C56.85962467 261.06920185 70.59147745 252.81739333 77 242 C77 240.68 77 239.36 77 238 C74.0878533 236.54392665 72.23315694 236.59585538 69 237 C66.91574058 238.76982373 65.27505182 240.40017946 63.5 242.4375 C52.63938873 254.05874987 38.64592701 261.97175606 23 265 C22.67 265.33 22.34 265.66 22 266 C20.36933234 266.22714004 18.73023997 266.39455086 17.08984375 266.53515625 C16.10048828 266.62216797 15.11113281 266.70917969 14.09179688 266.79882812 C13.05087891 266.88583984 12.00996094 266.97285156 10.9375 267.0625 C9.37032227 267.19881836 9.37032227 267.19881836 7.77148438 267.33789062 C5.18133462 267.56260681 2.59070791 267.78181282 0 268 C0 262.72 0 257.44 0 252 C1.711875 252.0825 3.42375 252.165 5.1875 252.25 C12.35316792 252.24157971 18.32220855 250.46365122 25 248 C26.0003125 247.649375 27.000625 247.29875 28.03125 246.9375 C38.12553817 243.11229606 50.73296095 236.15951862 57 227 C57.79565214 224.51541756 57.94608763 222.64170636 58 220 C54.80001865 218.8856663 54.80001865 218.8856663 51 219 C49.2979136 220.4575878 48.12431262 222.10452752 46.77734375 223.89453125 C40.6300056 231.1767626 31.712186 235.56476024 23 239 C22.27425781 239.30808594 21.54851563 239.61617187 20.80078125 239.93359375 C14.03884605 242.54587556 7.19397701 242.65077781 0 243 C0 238.38 0 233.76 0 229 C4.455 228.01 4.455 228.01 9 227 C9.33 225.02 9.66 223.04 10 221 C8.72125 220.835 7.4425 220.67 6.125 220.5 C5.40570313 220.4071875 4.68640625 220.314375 3.9453125 220.21875 C1.99501656 219.9627515 1.99501656 219.9627515 0 220 C0 216.7 0 213.4 0 210 C0.89460938 209.85304688 1.78921875 209.70609375 2.7109375 209.5546875 C13.38319743 207.57497191 21.73454582 204.33390332 29 196 C29.66 195.278125 30.32 194.55625 31 193.8125 C38.46219065 183.3187944 40.55651977 172.7744165 38.5390625 160.10546875 C35.5636352 148.99137267 28.17496715 140.57433181 18.5859375 134.4609375 C12.54556322 131.18187718 6.78203653 129.95644105 0 129 C0 121.74 0 114.48 0 107 C17.80734378 107.85818524 32.18815191 113.49936378 44.5 126.5 C44.98025635 127.04076172 45.4605127 127.58152344 45.95532227 128.13867188 C48.1965769 130.58840615 49.43049384 131.91681371 52.78125 132.40625 C54.96601877 132.22337814 54.96601877 132.22337814 56 131 C56.60047943 127.92254292 56.52148147 125.85008624 54.859375 123.140625 C43.73839155 109.64428587 27.51831731 100.6880313 10.24609375 98.53125 C6.83457862 98.26162422 3.42434444 98 0 98 C0 92.72 0 87.44 0 82 C24.7807971 83.68559737 46.09930571 90.65912126 63.3125 109.5625 C65.81299095 112.29493969 65.81299095 112.29493969 69.3125 112.4375 C71.91174564 112.2830226 71.91174564 112.2830226 73 111 C73.47124522 108.67793508 73.47124522 108.67793508 73 106 C60.29512716 89.12066894 37.65024078 77.05539277 17 74 C11.36717923 73.43348067 5.66402154 73 0 73 C0 67.72 0 62.44 0 57 C20.64164664 57.75060533 42.06560333 61.39842748 59 74 C60.4766929 74.94139172 61.95593022 75.87880238 63.4375 76.8125 C69.51351414 80.85257223 74.77768019 85.88404803 80.01171875 90.9453125 C81.96785322 92.83166679 81.96785322 92.83166679 85 95 C87.85945818 95.05050452 87.85945818 95.05050452 90 94 C91.09414287 90.47808387 91.09414287 90.47808387 89.98828125 87.11328125 C80.82991133 77.27176952 70.68528048 69.59975499 59 63 C58.06929687 62.46632813 57.13859375 61.93265625 56.1796875 61.3828125 C38.56176968 51.91134136 19.69283229 49.01859477 0 48 C0 42.39 0 36.78 0 31 C36.14798798 32.66836868 68.60155671 42.14627175 94.8671875 68.56640625 C97.7005613 70.47089011 99.65732476 70.3305431 103 70 C104.2301911 68.96439593 104.2301911 68.96439593 104.3671875 66.75390625 C103.56683127 60.7512345 96.58286113 56.58495252 92 53 C81.65358862 45.26975609 70.90507968 38.98678854 59 34 C59 33.34 59 32.68 59 32 C58.46375 31.91363281 57.9275 31.82726562 57.375 31.73828125 C52.56228155 30.87547482 47.98038389 29.71442231 43.33642578 28.17163086 C29.12661376 23.45616731 14.86452768 22.69137338 0 22 C0 14.74 0 7.48 0 0 Z " fill="#2C2C5F" transform="translate(505,296)"/>
<path d="M0 0 C2.4375 0.3125 2.4375 0.3125 4.4375 2.3125 C4.66455078 4.37548828 4.66455078 4.37548828 4.6328125 6.8828125 C4.62314453 8.22666016 4.62314453 8.22666016 4.61328125 9.59765625 C4.59652344 10.53480469 4.57976562 11.47195313 4.5625 12.4375 C4.55347656 13.38238281 4.54445313 14.32726562 4.53515625 15.30078125 C4.51154522 17.63827292 4.47861516 19.97526123 4.4375 22.3125 C5.0975 22.3125 5.7575 22.3125 6.4375 22.3125 C6.67984375 21.71695312 6.9221875 21.12140625 7.171875 20.5078125 C8.68060151 17.89082393 10.16488679 16.82634056 12.6875 15.1875 C13.43515625 14.68992187 14.1828125 14.19234375 14.953125 13.6796875 C24.13120241 8.62885873 37.49662834 8.2748969 47.58398438 10.86328125 C59.27713953 15.2375232 67.13264716 24.57230903 72.34375 35.515625 C75.5433542 43.69747003 76.29096864 55.06864908 72.75 63.25 C72.01713808 64.6250872 71.24609747 65.98053847 70.4375 67.3125 C70.02886719 68.02019531 69.62023437 68.72789062 69.19921875 69.45703125 C65.61745356 75.43403261 62.06095472 80.26146729 56.0625 84 C55.14726563 84.58136719 54.23203125 85.16273438 53.2890625 85.76171875 C43.66113974 90.99772606 30.35176469 90.94299823 19.8125 88.25 C14.71557511 86.38352046 10.25849539 83.14272485 6.4375 79.3125 C6.4375 78.6525 6.4375 77.9925 6.4375 77.3125 C5.7775 77.3125 5.1175 77.3125 4.4375 77.3125 C4.44797363 77.99876465 4.45844727 78.6850293 4.46923828 79.39208984 C4.51071874 82.49052289 4.53680069 85.58889761 4.5625 88.6875 C4.57925781 89.76773438 4.59601563 90.84796875 4.61328125 91.9609375 C4.61972656 92.9921875 4.62617188 94.0234375 4.6328125 95.0859375 C4.64328613 96.03903809 4.65375977 96.99213867 4.66455078 97.97412109 C4.4375 100.3125 4.4375 100.3125 2.4375 102.3125 C0 102.625 0 102.625 -2.5625 102.3125 C-4.512994 100.79813364 -5.44347199 99.89894255 -5.94002342 97.45246887 C-5.9411545 96.7511937 -5.94228558 96.04991852 -5.94345093 95.32739258 C-5.9519104 94.51984528 -5.96036987 93.71229797 -5.96908569 92.88027954 C-5.963013 91.9981076 -5.95694031 91.11593567 -5.95068359 90.20703125 C-5.95594055 89.27506927 -5.96119751 88.3431073 -5.96661377 87.38290405 C-5.97983695 84.29676645 -5.97106739 81.21114302 -5.9609375 78.125 C-5.96295757 75.98412985 -5.96586844 73.84326037 -5.96963501 71.70239258 C-5.97406151 67.21331233 -5.96761673 62.72441103 -5.95361328 58.23535156 C-5.93652133 52.4747544 -5.94636076 46.71457652 -5.96433067 40.95399475 C-5.97515964 36.53256051 -5.97172623 32.11122603 -5.9639473 27.68978882 C-5.96194284 25.5654597 -5.96441314 23.4411216 -5.97138596 21.31680298 C-5.97898575 18.35028002 -5.9674167 15.38444066 -5.95068359 12.41796875 C-5.95675629 11.53579681 -5.96282898 10.65362488 -5.96908569 9.74472046 C-5.96062622 8.93717316 -5.95216675 8.12962585 -5.94345093 7.29760742 C-5.94175431 6.24569466 -5.94175431 6.24569466 -5.94002342 5.17253113 C-5.23408338 1.69441459 -3.41025534 0.4158848 0 0 Z " fill="#F4F3F3" transform="translate(470.5625,415.6875)"/>
<path d="M0 0 C2.52026123 2.52026123 2.24197678 4.07155416 2.26748681 7.50963449 C2.26302537 8.28452518 2.25856392 9.05941586 2.25396729 9.85778809 C2.25864726 11.0894257 2.25864726 11.0894257 2.26342177 12.34594488 C2.27143512 15.11286319 2.26506521 17.87956421 2.25878906 20.64648438 C2.26149745 22.62380604 2.26505751 24.6011267 2.26940918 26.57844543 C2.27855363 31.96054606 2.27498048 37.3425703 2.26865101 42.72467232 C2.26360163 48.34652036 2.26827949 53.96836168 2.27142334 59.59020996 C2.27506609 69.03264546 2.27025579 78.47504971 2.26074219 87.91748047 C2.24985706 98.84768029 2.25338241 109.77780551 2.264395 120.70800352 C2.27345908 130.07785543 2.27475746 139.44768482 2.26951766 148.81753969 C2.26639311 154.42013555 2.26600186 160.02269629 2.27259064 165.62528992 C2.27835071 170.89145604 2.27439184 176.15752561 2.26280212 181.42368126 C2.26014835 183.36113512 2.26093277 185.29859705 2.26532745 187.23604774 C2.27075617 189.87154705 2.26398157 192.50673283 2.25396729 195.14221191 C2.26065945 196.30454794 2.26065945 196.30454794 2.26748681 197.49036551 C2.22830011 202.77169989 2.22830011 202.77169989 0 205 C-2.6834904 205.34403723 -4.31367406 205.43036 -6.63634682 203.97393036 C-8.75546599 200.90643951 -8.41248817 197.70272025 -8.38095093 194.10461426 C-8.3856309 193.29154076 -8.39031087 192.47846726 -8.39513266 191.64075518 C-8.40713187 188.9068236 -8.39760633 186.17338873 -8.38818359 183.43945312 C-8.39224711 181.48330898 -8.39758775 179.52716714 -8.40411377 177.57102966 C-8.41781933 172.25087064 -8.41247535 166.93088566 -8.40297651 161.6107235 C-8.39539668 156.0507395 -8.40242085 150.4907707 -8.40713501 144.93078613 C-8.41259746 135.59266476 -8.40538811 126.25461449 -8.39111328 116.91650391 C-8.37478586 106.11067077 -8.38007402 95.30500743 -8.3965925 84.49917841 C-8.41019343 75.23204164 -8.41213385 65.96495608 -8.40427649 56.69781256 C-8.3995923 51.15834106 -8.39899556 45.61894944 -8.40888596 40.07948303 C-8.41753308 34.87235096 -8.41157502 29.66543843 -8.39420319 24.45833015 C-8.39022627 22.54387337 -8.39139287 20.6293982 -8.39799118 18.71494865 C-8.4061493 16.10817571 -8.395955 13.50211302 -8.38095093 10.89538574 C-8.38764309 10.13187191 -8.39433526 9.36835809 -8.40123022 8.58170748 C-8.34419861 3.49823818 -8.34419861 3.49823818 -6.63634682 1.02606964 C-4.31367406 -0.43036 -2.6834904 -0.34403723 0 0 Z " fill="#F4F2F0" transform="translate(452,364)"/>
<path d="M0 0 C2.5625 0.3125 2.5625 0.3125 4.19884682 1.42873383 C6.20435519 4.19916613 5.94019601 6.36780648 5.94345093 9.76525879 C5.9481309 10.4231573 5.95281087 11.0810558 5.95763266 11.75889063 C5.96961751 13.9677195 5.96011234 16.17593193 5.95068359 18.38476562 C5.95474777 19.96653099 5.96008878 21.54829353 5.96661377 23.13005066 C5.98031163 27.42959466 5.9749786 31.72892314 5.96547651 36.02847099 C5.95789267 40.52342189 5.96492197 45.01835406 5.96963501 49.51330566 C5.97509629 57.0624524 5.9678912 64.61151115 5.95361328 72.16064453 C5.93728604 80.8942916 5.94257428 89.62772859 5.9590925 98.36137056 C5.97269677 105.85357861 5.97463222 113.34572333 5.96677649 120.83793974 C5.96209413 125.31548221 5.96149052 129.79292587 5.97138596 134.27046204 C5.98003798 138.47954986 5.9740662 142.68836626 5.95670319 146.8974247 C5.95272887 148.44421754 5.95388849 149.99103314 5.96049118 151.537817 C5.9686599 153.64543577 5.95844311 155.75217862 5.94345093 157.85974121 C5.94231985 159.04034874 5.94118877 160.22095627 5.94002342 161.43733978 C5.5625 164.3125 5.5625 164.3125 4.19884682 166.22751617 C2.5625 167.3125 2.5625 167.3125 0 167.125 C-2.4375 166.3125 -2.4375 166.3125 -4.4375 164.3125 C-4.68918228 161.54197693 -4.68918228 161.54197693 -4.69146729 157.93530273 C-4.69614726 156.94255293 -4.69614726 156.94255293 -4.70092177 155.92974758 C-4.70892862 153.70177361 -4.70256785 151.47406998 -4.69628906 149.24609375 C-4.69899774 147.65300333 -4.70255797 146.05991417 -4.70690918 144.46682739 C-4.71605016 140.13220797 -4.71248192 135.79768343 -4.70615101 131.46306229 C-4.70109983 126.93427518 -4.70577999 122.40549639 -4.70892334 117.87670898 C-4.71256557 110.27033016 -4.70775717 102.66399013 -4.69824219 95.05761719 C-4.68735714 86.25414261 -4.69088254 77.45076066 -4.701895 68.64728832 C-4.71096058 61.09907581 -4.71225673 53.55089125 -4.70701766 46.00267506 C-4.70389393 41.48995762 -4.70349961 36.97728376 -4.71009064 32.46456909 C-4.71585289 28.2227226 -4.71188787 23.98099594 -4.70030212 19.73916245 C-4.69764951 18.17904739 -4.69843082 16.61892231 -4.70282745 15.05881119 C-4.70826084 12.9356354 -4.70147614 10.81284804 -4.69146729 8.68969727 C-4.69071323 7.49949478 -4.68995918 6.3092923 -4.68918228 5.08302307 C-4.36200627 1.48146362 -3.62879738 0.46523043 0 0 Z " fill="#EFEFEF" transform="translate(631.4375,382.6875)"/>
<path d="M0 0 C2.97 0 5.94 0 9 0 C10.29844239 3.97698736 11.58750468 7.95695651 12.875 11.9375 C13.23980469 13.05447266 13.60460937 14.17144531 13.98046875 15.32226562 C15.977079 21.5117574 17.71526404 27.62365256 19 34 C19.66 34 20.32 34 21 34 C21.16798096 33.34733154 21.33596191 32.69466309 21.5090332 32.0222168 C23.41031748 24.82508882 25.69967101 17.82610831 28.1875 10.8125 C28.55552734 9.76513672 28.92355469 8.71777344 29.30273438 7.63867188 C30.19841262 5.09122337 31.09753816 2.54505148 32 0 C34.97 0 37.94 0 41 0 C42.57247211 4.50032696 44.13888352 9.00269981 45.69970703 13.50708008 C46.23157201 15.03923413 46.76509085 16.5708151 47.30029297 18.10180664 C48.06913435 20.30206236 48.83201147 22.50430801 49.59375 24.70703125 C49.83436157 25.39150833 50.07497314 26.07598541 50.32287598 26.78120422 C51.31225239 29.65837218 52 31.93309937 52 35 C52.66 35 53.32 35 54 35 C54.12238037 33.98542725 54.24476074 32.97085449 54.37084961 31.92553711 C54.97329609 28.16661706 55.88416552 24.80473355 57.06640625 21.19140625 C57.6706543 19.33032227 57.6706543 19.33032227 58.28710938 17.43164062 C58.7121143 16.14188579 59.13724606 14.85217275 59.5625 13.5625 C59.9920636 12.24561454 60.42110484 10.92855858 60.84960938 9.61132812 C61.89462197 6.40584005 62.94489911 3.20217873 64 0 C66.97 0 69.94 0 73 0 C72.51488317 4.65712161 71.5063399 8.46480958 69.81137085 12.86328125 C68.5409429 16.20891196 67.4245677 19.60287669 66.30078125 23 C66.0608696 23.7211499 65.82095795 24.4422998 65.57377625 25.18530273 C64.81858934 27.45639692 64.06550736 29.72818235 63.3125 32 C62.7963639 33.55343192 62.28008908 35.10681776 61.76367188 36.66015625 C60.50751277 40.43957414 59.25323904 44.21961287 58 48 C54.7 48 51.4 48 48 48 C45.72208719 42.95415826 43.99731448 37.94978342 42.5 32.625 C42.07024325 31.12855165 41.63926328 29.63245402 41.20703125 28.13671875 C41.00158691 27.42563965 40.79614258 26.71456055 40.58447266 25.98193359 C39.4940621 22.28437599 38.25852366 18.64309482 37 15 C34.93690136 18.09464796 34.10759869 20.57418278 33.0625 24.125 C30.6429397 32.19916234 28.00649661 40.1258422 25 48 C21.7 48 18.4 48 15 48 C11.716543 40.65259213 9.14740756 33.35869974 7.04296875 25.59375 C5.96037021 21.86344792 4.66927736 18.26380689 3.3125 14.625 C1.48957681 9.65949144 0.31635967 5.27266109 0 0 Z " fill="#353464" transform="translate(548,690)"/>
<path d="M0 0 C5.9090625 -0.12375 5.9090625 -0.12375 11.9375 -0.25 C13.16073975 -0.28641602 14.38397949 -0.32283203 15.64428711 -0.36035156 C24.22636336 -0.44672259 30.40878099 0.93250043 37 6.5625 C40.30228936 10.58716516 40.41613962 14.33911327 40.328125 19.36328125 C39.77285021 23.8253108 38.19093712 26.84540613 35 30 C27.27679123 35.35032466 17.94336806 34.39945565 9 34 C9 38.62 9 43.24 9 48 C6.03 48 3.06 48 0 48 C0 32.16 0 16.32 0 0 Z " fill="#323164" transform="translate(415,690)"/>
<path d="M0 0 C2.64 0 5.28 0 8 0 C8.46897705 0.83249268 8.9379541 1.66498535 9.42114258 2.52270508 C11.16618349 5.61732199 12.9176866 8.70824036 14.67114258 11.7980957 C15.42843923 13.13466355 16.18399129 14.47222146 16.93774414 15.81079102 C18.02290515 17.73718429 19.11433744 19.6599031 20.20703125 21.58203125 C20.54152786 22.17901321 20.87602448 22.77599518 21.22065735 23.3910675 C22.87758455 26.29156977 24.46789616 28.79682981 27 31 C27.10127197 30.45939941 27.20254395 29.91879883 27.30688477 29.36181641 C28.18382595 26.37360612 29.56610448 23.92762837 31.08984375 21.2109375 C31.70923828 20.10492187 32.32863281 18.99890625 32.96679688 17.859375 C33.290271 17.28767578 33.61374512 16.71597656 33.94702148 16.12695312 C34.93632597 14.37707663 35.91690506 12.62252291 36.89648438 10.8671875 C41.73549107 2.26450893 41.73549107 2.26450893 44 0 C46.64 0 49.28 0 52 0 C52 15.84 52 31.68 52 48 C49.03 48 46.06 48 43 48 C43 38.43 43 28.86 43 19 C42.34 19 41.68 19 41 19 C40.77441406 19.63421875 40.54882812 20.2684375 40.31640625 20.921875 C38.48631787 25.2011321 36.21327059 29.19417123 33.9375 33.25 C33.24817383 34.49136719 33.24817383 34.49136719 32.54492188 35.7578125 C29.13705937 41.86294063 29.13705937 41.86294063 28 43 C26.33382885 43.04063832 24.66611905 43.042721 23 43 C22.47043701 42.02389771 22.47043701 42.02389771 21.93017578 41.02807617 C20.32992013 38.08041684 18.72748599 35.13394736 17.125 32.1875 C16.56941406 31.16333984 16.01382812 30.13917969 15.44140625 29.08398438 C14.90644531 28.10107422 14.37148438 27.11816406 13.8203125 26.10546875 C13.32805176 25.19949951 12.83579102 24.29353027 12.32861328 23.36010742 C11.29688304 21.52737382 10.16663616 19.74995424 9 18 C8.67 27.9 8.34 37.8 8 48 C5.36 48 2.72 48 0 48 C0 32.16 0 16.32 0 0 Z " fill="#383768" transform="translate(349,690)"/>
<path d="M0 0 C5.12582163 -0.65436021 5.12582163 -0.65436021 7.66759682 1.24826813 C9.34732956 3.45663975 9.3769657 4.64603076 9.38095093 7.40270996 C9.3894104 8.30281296 9.39786987 9.20291595 9.40658569 10.1302948 C9.400513 11.11532486 9.39444031 12.10035492 9.38818359 13.11523438 C9.39344055 14.15448563 9.39869751 15.19373688 9.40411377 16.26448059 C9.41734267 19.70772223 9.40856522 23.15050346 9.3984375 26.59375 C9.4004574 28.98124277 9.40336813 31.36873494 9.40713501 33.75622559 C9.41156229 38.76316189 9.40511416 43.76993779 9.39111328 48.77685547 C9.37402137 55.20331337 9.38386036 61.62939543 9.40183067 68.05583954 C9.41265749 72.98682501 9.4092272 77.91772098 9.4014473 82.84870911 C9.39944225 85.21865381 9.4019152 87.58860657 9.40888596 89.95854187 C9.41648213 93.26750291 9.40492144 96.57585042 9.38818359 99.88476562 C9.39425629 100.86979568 9.40032898 101.85482574 9.40658569 102.8697052 C9.39389648 104.2198597 9.39389648 104.2198597 9.38095093 105.59729004 C9.37981985 106.379683 9.37868877 107.16207596 9.37752342 107.9681778 C8.89986398 110.5389297 8.05603245 111.42782651 6 113 C3.5 113.375 3.5 113.375 1 113 C-1.05679697 111.42764701 -1.90032773 110.54043252 -2.37473011 107.9681778 C-2.37456237 107.18578484 -2.37439463 106.40339188 -2.3742218 105.59729004 C-2.38123611 104.69718704 -2.38825043 103.79708405 -2.39547729 102.8697052 C-2.38783356 101.88467514 -2.38018982 100.89964508 -2.37231445 99.88476562 C-2.37596512 98.84551437 -2.37961578 97.80626312 -2.38337708 96.73551941 C-2.39149845 93.29226458 -2.37785895 89.849478 -2.36328125 86.40625 C-2.36276284 84.01875814 -2.36327981 81.63126585 -2.36479187 79.24377441 C-2.36470208 74.23683308 -2.35425766 69.23005252 -2.33618164 64.22314453 C-2.31349438 57.79674783 -2.31294965 51.37058618 -2.31969929 44.94416046 C-2.32303662 40.01318259 -2.3164136 35.08225856 -2.30657005 30.15129089 C-2.3027137 27.7813495 -2.30157163 25.41140213 -2.3031559 23.04145813 C-2.30352568 19.73260025 -2.2909306 16.42404666 -2.2746582 13.11523438 C-2.27713562 12.13020432 -2.27961304 11.14517426 -2.28216553 10.1302948 C-2.27508072 9.2301918 -2.26799591 8.33008881 -2.26069641 7.40270996 C-2.25864354 6.620317 -2.25659067 5.83792404 -2.25447559 5.0318222 C-2 3 -2 3 0 0 Z " fill="#F3ECE9" transform="translate(425,410)"/>
<path d="M0 0 C2.5625 0.3125 2.5625 0.3125 4.19926739 1.54695034 C5.94167762 3.80358047 5.93730614 5.04098992 5.9367218 7.87379456 C5.94373611 8.80899933 5.95075043 9.7442041 5.95797729 10.70774841 C5.95033356 11.73175247 5.94268982 12.75575653 5.93481445 13.81079102 C5.93846512 14.89066284 5.94211578 15.97053467 5.94587708 17.08312988 C5.95399886 20.66104746 5.94035943 24.2385145 5.92578125 27.81640625 C5.92526288 30.29597473 5.92577969 32.77554362 5.92729187 35.25511169 C5.92719056 41.12112364 5.91229481 46.98696946 5.89164084 52.85294145 C5.87193747 58.86395732 5.87612534 64.8748271 5.88219929 70.88586521 C5.8855343 76.0063835 5.87891819 81.12684987 5.86907005 86.24735832 C5.86521058 88.7102322 5.86407291 91.17311184 5.8656559 93.63598824 C5.86602513 97.0719728 5.85344662 100.507663 5.8371582 103.94360352 C5.83963562 104.96963181 5.84211304 105.9956601 5.84466553 107.05278015 C5.83758072 107.9851651 5.83049591 108.91755005 5.82319641 109.87818909 C5.82114354 110.69100121 5.81909067 111.50381334 5.81697559 112.34125614 C5.5625 114.3125 5.5625 114.3125 3.5625 116.3125 C0.5625 116.5625 0.5625 116.5625 -2.4375 116.3125 C-4.89318307 113.85681693 -4.68837135 113.20629688 -4.69146729 109.83349609 C-4.69710693 108.89125183 -4.70274658 107.94900757 -4.70855713 106.97821045 C-4.70450867 105.94126038 -4.70046021 104.9043103 -4.69628906 103.8359375 C-4.6997937 102.74645813 -4.70329834 101.65697876 -4.70690918 100.53448486 C-4.71574057 96.91875919 -4.70987231 93.3032278 -4.703125 89.6875 C-4.70447124 87.18408165 -4.70641143 84.68066355 -4.70892334 82.17724609 C-4.71187651 76.92478437 -4.70776034 71.67237356 -4.69824219 66.41992188 C-4.68735733 60.34301182 -4.69088282 54.26623595 -4.701895 48.18932915 C-4.7120556 42.34912451 -4.71099155 36.50897099 -4.70513153 30.66876221 C-4.70379358 28.1807656 -4.7054478 25.69276559 -4.71009064 23.20477295 C-4.71514721 19.73277603 -4.70745772 16.2610399 -4.69628906 12.7890625 C-4.70033752 11.75211243 -4.70438599 10.71516235 -4.70855713 9.64678955 C-4.70291748 8.70454529 -4.69727783 7.76230103 -4.69146729 6.79150391 C-4.69071323 5.97001862 -4.68995918 5.14853333 -4.68918228 4.30215454 C-4.28854445 1.13494356 -3.06972317 0.39355425 0 0 Z " fill="#EFF0F0" transform="translate(609.4375,408.6875)"/>
<path d="M0 0 C21.25344847 -0.43821543 38.80758297 3.39691214 59 10 C59 10.66 59 11.32 59 12 C59.68320312 12.09539062 60.36640625 12.19078125 61.0703125 12.2890625 C64.63330759 13.15368264 67.66829271 14.65070192 70.875 16.375 C71.52629883 16.7251416 72.17759766 17.0752832 72.84863281 17.43603516 C84.05810877 23.643491 96.8069586 32.01845684 105 42 C105.41015625 44.6640625 105.41015625 44.6640625 105 47 C103 49 103 49 100.19140625 49.40234375 C96.06777646 48.88247365 94.83008693 47.49979461 91.9375 44.5625 C79.42350091 32.55720006 64.37518922 23.60542392 48 18 C47.3704541 17.78069824 46.7409082 17.56139648 46.09228516 17.33544922 C35.41843092 13.65108651 25.01128532 11.32315476 13.67578125 10.76953125 C12.94939453 10.73311523 12.22300781 10.69669922 11.47460938 10.65917969 C10.0637609 10.59609297 8.65214634 10.54787388 7.24023438 10.51660156 C4.51902158 10.41109633 2.39315487 10.21368765 -0.01953125 8.90234375 C-1.58998927 5.85527978 -0.67432548 3.24902278 0 0 Z " fill="#EFEEEF" transform="translate(505,318)"/>
<path d="M0 0 C0.80050781 0.05800781 1.60101562 0.11601563 2.42578125 0.17578125 C3.23402344 0.22089844 4.04226563 0.26601563 4.875 0.3125 C5.48988281 0.37050781 6.10476563 0.42851563 6.73828125 0.48828125 C8.18130898 3.48565212 9.6166631 6.48663861 11.05078125 9.48828125 C11.45490234 10.32746094 11.85902344 11.16664063 12.27539062 12.03125 C14.40137302 16.4906277 16.3317681 20.93646206 18.01196289 25.58105469 C19.50481002 29.50109562 21.39894517 33.24450839 23.22070312 37.01953125 C25.01044914 40.77838781 26.50832038 44.51079583 27.73828125 48.48828125 C24.43828125 48.48828125 21.13828125 48.48828125 17.73828125 48.48828125 C14.73828125 40.86328125 14.73828125 40.86328125 14.73828125 37.48828125 C6.48828125 37.48828125 -1.76171875 37.48828125 -10.26171875 37.48828125 C-10.59171875 38.80828125 -10.92171875 40.12828125 -11.26171875 41.48828125 C-12.19074028 43.85656413 -13.2321829 46.16063498 -14.26171875 48.48828125 C-17.23171875 48.48828125 -20.20171875 48.48828125 -23.26171875 48.48828125 C-22.6345668 44.54971312 -21.41435238 41.33539267 -19.71484375 37.734375 C-19.19921875 36.63158203 -18.68359375 35.52878906 -18.15234375 34.39257812 C-17.6109375 33.24853516 -17.06953125 32.10449219 -16.51171875 30.92578125 C-12.96467237 23.39265456 -9.5151423 15.86456901 -6.42871094 8.12915039 C-3.13560304 0.67694366 -3.13560304 0.67694366 0 0 Z " fill="#313164" transform="translate(644.26171875,689.51171875)"/>
<path d="M0 0 C2.97 0 5.94 0 9 0 C14.4626353 11.49088407 19.77945788 23.04093047 24.95507812 34.6640625 C25.68107474 36.28703812 26.41471064 37.90660939 27.15429688 39.5234375 C27.52103516 40.33039062 27.88777344 41.13734375 28.265625 41.96875 C28.76497559 43.05833008 28.76497559 43.05833008 29.27441406 44.16992188 C30 46 30 46 30 48 C26.7 48 23.4 48 20 48 C17 40.375 17 40.375 17 37 C8.75 37 0.5 37 -8 37 C-8.33 38.32 -8.66 39.64 -9 41 C-9.66152556 43.3347961 -10.32741333 45.66836622 -11 48 C-14.3 48 -17.6 48 -21 48 C-19.02731595 41.80540337 -16.75707153 35.91265981 -14.0625 30 C-13.72798828 29.2575 -13.39347656 28.515 -13.04882812 27.75 C-12.37409767 26.25233239 -11.69750737 24.75550127 -11.01904297 23.25952148 C-9.98252086 20.96124354 -8.96517881 18.65508684 -7.94921875 16.34765625 C-6.31280228 12.65940369 -4.57134981 9.0388053 -2.75 5.4375 C-2.22921875 4.40496094 -1.7084375 3.37242187 -1.171875 2.30859375 C-0.78515625 1.54675781 -0.3984375 0.78492188 0 0 Z " fill="#383869" transform="translate(312,690)"/>
<path d="M0 0 C11.88 0 23.76 0 36 0 C36 2.64 36 5.28 36 8 C27.42 8 18.84 8 10 8 C10 11.96 10 15.92 10 20 C17.59 20 25.18 20 33 20 C33 22.64 33 25.28 33 28 C25.41 28 17.82 28 10 28 C10 31.96 10 35.92 10 40 C18.91 40 27.82 40 37 40 C37 42.64 37 45.28 37 48 C24.79 48 12.58 48 0 48 C0 32.16 0 16.32 0 0 Z " fill="#3E3F6E" transform="translate(506,690)"/>
<path d="M0 0 C2.9375 0.375 2.9375 0.375 4.9375 2.375 C5.40625 5.11328125 5.40625 5.11328125 4.9375 8.375 C3.16274073 10.74235868 1.56101137 12.55880003 -0.5625 14.5625 C-1.14273926 15.12348389 -1.72297852 15.68446777 -2.32080078 16.26245117 C-25.75822438 38.25637782 -55.65972096 50.14686165 -87.66015625 49.578125 C-91.0625 49.375 -91.0625 49.375 -92.0625 48.375 C-92.25 44.9375 -92.25 44.9375 -92.0625 41.375 C-89.61352992 38.92602992 -88.77598146 39.07269146 -85.3984375 38.8828125 C-84.44952637 38.82029297 -83.50061523 38.75777344 -82.52294922 38.69335938 C-80.99565186 38.59764648 -80.99565186 38.59764648 -79.4375 38.5 C-51.09411512 36.28041629 -26.16421813 24.67418098 -6.0625 4.375 C-5.54171875 3.63765625 -5.0209375 2.9003125 -4.484375 2.140625 C-3.0625 0.375 -3.0625 0.375 0 0 Z " fill="#F0EFF0" transform="translate(596.0625,548.625)"/>
<path d="M0 0 C31.80243259 0.26905611 60.42475941 16.19392935 82.375 38.3125 C84.375 41.3125 84.375 41.3125 84.125 43.875 C83.375 46.3125 83.375 46.3125 81.375 48.3125 C77.27922682 48.27779006 75.63488086 47.53758806 72.515625 44.8359375 C71.54174588 43.79604398 70.5785949 42.74602531 69.625 41.6875 C64.63037328 36.42877171 59.54920828 32.17013738 53.375 28.3125 C52.56417969 27.79171875 51.75335937 27.2709375 50.91796875 26.734375 C39.03040606 19.32102882 26.90805618 15.50907539 13.375 12.3125 C12.52035156 12.10882813 11.66570313 11.90515625 10.78515625 11.6953125 C6.76640024 11.05700117 2.70265544 10.99128871 -1.36132812 10.8828125 C-3.32421875 10.7890625 -3.32421875 10.7890625 -6.625 10.3125 C-8.77415785 7.08876323 -9.00786803 6.04546326 -8.625 2.3125 C-5.80104673 -0.51145327 -3.95144049 0.01247823 0 0 Z " fill="#EFEEEF" transform="translate(512.625,343.6875)"/>
<path d="M0 0 C11.55 0 23.1 0 35 0 C35 2.64 35 5.28 35 8 C26.42 8 17.84 8 9 8 C9 11.96 9 15.92 9 20 C16.59 20 24.18 20 32 20 C32 22.64 32 25.28 32 28 C24.41 28 16.82 28 9 28 C9 32.29 9 36.58 9 41 C17.91 41 26.82 41 36 41 C36 43.31 36 45.62 36 48 C24.12 48 12.24 48 0 48 C0 32.16 0 16.32 0 0 Z " fill="#383868" transform="translate(724,690)"/>
<path d="M0 0 C0.70382812 0.00580078 1.40765625 0.01160156 2.1328125 0.01757812 C7.43043979 0.15001881 11.41640101 1.02070051 16.125 3.375 C15.795 5.685 15.465 7.995 15.125 10.375 C10.59094982 10.62689168 10.59094982 10.62689168 8.296875 9.38671875 C5.61503991 8.13744665 3.57469252 8.07465533 0.625 8.0625 C-0.3134375 8.04574219 -1.251875 8.02898438 -2.21875 8.01171875 C-5.30147151 8.43332625 -6.67235475 9.20323295 -8.875 11.375 C-9.20925735 14.00125139 -9.20925735 14.00125139 -8.875 16.375 C-3.8971334 18.7382296 1.03923778 20.6995796 6.3125 22.3125 C14.81617647 25.14705882 14.81617647 25.14705882 18.125 29.375 C19.18579408 34.40114339 18.69376445 38.21640575 16.4375 42.8125 C12.29323253 47.40479639 8.29962655 49.11259862 2.2421875 49.61328125 C-4.98547565 49.77873378 -11.66521455 49.45607603 -17.875 45.375 C-19.23046875 43.40625 -19.23046875 43.40625 -19.875 41.375 C-18.5 38.625 -18.5 38.625 -16.875 36.375 C-16.00101563 36.808125 -16.00101563 36.808125 -15.109375 37.25 C-8.3725187 40.30065191 -2.2561474 41.34117759 5.125 40.375 C6.115 39.715 7.105 39.055 8.125 38.375 C8.3752157 35.29134129 8.3752157 35.29134129 8.125 32.375 C3.59784923 30.58122328 -0.84311869 29.08362204 -5.5625 27.875 C-10.58710894 26.52676468 -14.23721966 25.29515627 -17.6875 21.25 C-19.35961839 17.20171337 -19.68143111 13.68864564 -18.875 9.375 C-14.24554973 2.02234369 -8.43483793 -0.16773825 0 0 Z " fill="#333163" transform="translate(269.875,689.625)"/>
<path d="M0 0 C2.89453125 0.40625 2.89453125 0.40625 5.89453125 2.40625 C4.91306563 10.34210055 -1.66884203 15.55398617 -7.65234375 20.2890625 C-19.71514951 29.48303666 -31.54144577 35.34365411 -46.10546875 39.40625 C-46.91757812 39.65503906 -47.7296875 39.90382813 -48.56640625 40.16015625 C-53.51700624 41.5163551 -58.43984174 41.6039362 -63.54296875 41.65625 C-64.6103125 41.6703894 -64.6103125 41.6703894 -65.69921875 41.68481445 C-70.8598418 41.65187695 -70.8598418 41.65187695 -73.10546875 39.40625 C-73.46424947 36.60776037 -73.61295821 35.06829262 -71.86450195 32.78735352 C-69.69218625 31.08176157 -68.38620448 30.93937768 -65.6484375 30.74609375 C-64.78283203 30.67455078 -63.91722656 30.60300781 -63.02539062 30.52929688 C-62.12369141 30.46806641 -61.22199219 30.40683594 -60.29296875 30.34375 C-54.59835367 29.927272 -49.46790224 29.53232495 -44.10546875 27.40625 C-43.30625 27.11105469 -42.50703125 26.81585937 -41.68359375 26.51171875 C-27.40001894 20.87977231 -15.78127422 13.91174207 -5.4921875 2.3125 C-3.10546875 0.40625 -3.10546875 0.40625 0 0 Z " fill="#EFEFF0" transform="translate(577.10546875,531.59375)"/>
<path d="M0 0 C3.3 0 6.6 0 10 0 C10.31453125 0.845625 10.6290625 1.69125 10.953125 2.5625 C13.07900306 8.19735752 15.23003631 13.69320689 18.02734375 19.02734375 C19.57743782 22.17110883 20.81068768 25.43434655 22.0703125 28.703125 C22.94614025 30.86693473 23.92623114 32.92848132 25 35 C28.80460096 28.93957369 31.33694845 22.66654958 33.75488281 15.97265625 C35.77772326 10.43149021 38.18192962 5.1872446 41 0 C43.97 0 46.94 0 50 0 C49.39112263 4.02739372 48.08256945 7.09406452 46.1875 10.6875 C43.83539906 15.26820254 41.78019091 19.84443382 39.92578125 24.64453125 C38.74097927 27.65902742 37.41245428 30.59840824 36.08203125 33.55078125 C33.97014455 38.33111684 31.99424649 43.16967347 30 48 C26.7 48 23.4 48 20 48 C14.72597225 36.09114032 9.45280474 24.18166612 4.375 12.1875 C3.88 11.02577271 3.88 11.02577271 3.375 9.84057617 C1.99517064 6.56090164 0.86545436 3.46181744 0 0 Z " fill="#353464" transform="translate(668,690)"/>
<path d="M0 0 C27.27248625 1.00368287 48.09053502 10.34382868 68 29 C68.57234375 29.49628906 69.1446875 29.99257813 69.734375 30.50390625 C71.99517666 32.52973695 72.94209955 33.64432578 73.4375 36.6875 C73 39 73 39 71 41 C68.12890625 41.37109375 68.12890625 41.37109375 65 41 C62.90234375 39.34765625 62.90234375 39.34765625 60.9375 37.0625 C46.54761486 21.73414409 27.14578909 13.26014812 6.4230957 11.82104492 C5.62347412 11.7563501 4.82385254 11.69165527 4 11.625 C2.9171875 11.55152344 2.9171875 11.55152344 1.8125 11.4765625 C0 11 0 11 -2 8 C-2.125 4.8125 -2.125 4.8125 -2 2 C-1.34 2 -0.68 2 0 2 C0 1.34 0 0.68 0 0 Z " fill="#EDEDEE" transform="translate(506,368)"/>
<path d="M0 0 C0.99 0.66 1.98 1.32 3 2 C3.1875 5.125 3.1875 5.125 3 8 C-19.35538547 21.70561779 -45.5524746 29.48306461 -72 27 C-74 25 -74 25 -74.3125 22.5625 C-74 20 -74 20 -72.80493164 18.38110352 C-70.42246681 16.55808126 -68.78984976 16.51801886 -65.80859375 16.33984375 C-64.78056641 16.26830078 -63.75253906 16.19675781 -62.69335938 16.12304688 C-61.61892578 16.06181641 -60.54449219 16.00058594 -59.4375 15.9375 C-51.79722319 15.46262741 -44.45968023 14.75973975 -37 13 C-36.2975415 12.83459717 -35.59508301 12.66919434 -34.87133789 12.4987793 C-25.91047178 10.272777 -17.86129235 7.32720058 -9.90942383 2.59130859 C-6.45837161 0.57120412 -4.02024729 -0.63076294 0 0 Z " fill="#F0F0F2" transform="translate(578,595)"/>
<path d="M0 0 C5.43792724 -0.36252848 5.43792724 -0.36252848 7.67495728 1.08032227 C9.67733589 3.98130167 9.38157694 6.40533173 9.38818359 9.90234375 C9.39344055 10.60022003 9.39869751 11.29809631 9.40411377 12.01712036 C9.41731846 14.3241412 9.40857455 16.63047213 9.3984375 18.9375 C9.40045811 20.54028455 9.40336945 22.14306821 9.40713501 23.74584961 C9.41155898 27.1050695 9.40512513 30.4640501 9.39111328 33.82324219 C9.37402116 38.13106839 9.38386198 42.4383339 9.40183067 46.74613953 C9.41266666 50.05582918 9.40922307 53.3653857 9.4014473 56.67507935 C9.39944477 58.26351996 9.40190643 59.85197263 9.40888596 61.44039917 C9.41649763 63.65981096 9.40490145 65.87831234 9.38818359 68.09765625 C9.38579681 69.36101807 9.38341003 70.62437988 9.38095093 71.92602539 C9 75 9 75 7.63589478 76.91186523 C5.3212769 78.4514607 3.71727823 78.348369 1 78 C-1 76 -1 76 -1.24723816 72.96362305 C-1.24581314 71.65949463 -1.24438812 70.35536621 -1.24291992 69.01171875 C-1.24481827 68.29287506 -1.24671661 67.57403137 -1.24867249 66.83340454 C-1.25238472 64.45132629 -1.24166979 62.06955127 -1.23046875 59.6875 C-1.22927707 58.0360518 -1.22882376 56.38460291 -1.2290802 54.7331543 C-1.22751456 51.26965094 -1.21921884 47.80625082 -1.20581055 44.34277344 C-1.18882059 39.89710203 -1.18499617 35.45154418 -1.18575573 31.00584412 C-1.18548415 27.59500031 -1.18000482 24.18418146 -1.17275429 20.77334595 C-1.16956599 19.13384185 -1.16759984 17.49433491 -1.16686058 15.85482788 C-1.16469872 13.56592973 -1.15595784 11.27715335 -1.14526367 8.98828125 C-1.14145187 7.68415283 -1.13764008 6.38002441 -1.13371277 5.03637695 C-1 2 -1 2 0 0 Z " fill="#EBECEE" transform="translate(584,430)"/>
<path d="M0 0 C2.5625 0.3125 2.5625 0.3125 4.19839478 1.40063477 C6.25900257 4.28868499 5.9440384 6.69743174 5.95068359 10.21484375 C5.95594055 10.91272003 5.96119751 11.61059631 5.96661377 12.32962036 C5.97981846 14.6366412 5.97107455 16.94297213 5.9609375 19.25 C5.96295811 20.85278455 5.96586945 22.45556821 5.96963501 24.05834961 C5.97405898 27.4175695 5.96762513 30.7765501 5.95361328 34.13574219 C5.93652116 38.44356839 5.94636198 42.7508339 5.96433067 47.05863953 C5.97516666 50.36832918 5.97172307 53.6778857 5.9639473 56.98757935 C5.96194477 58.57601996 5.96440643 60.16447263 5.97138596 61.75289917 C5.97899763 63.97231096 5.96740145 66.19081234 5.95068359 68.41015625 C5.94829681 69.67351807 5.94591003 70.93687988 5.94345093 72.23852539 C5.5625 75.3125 5.5625 75.3125 4.19839478 77.22436523 C1.8837769 78.7639607 0.27977823 78.660869 -2.4375 78.3125 C-5.32430089 75.42569911 -4.69135768 73.36595767 -4.69628906 69.32421875 C-4.6997937 68.60537506 -4.70329834 67.88653137 -4.70690918 67.14590454 C-4.71572965 64.76383884 -4.70987636 62.38206885 -4.703125 60 C-4.70447156 58.34855085 -4.70641202 56.69710209 -4.70892334 55.0456543 C-4.71187503 51.58215567 -4.70757557 48.1187601 -4.69824219 44.65527344 C-4.68684758 40.20954689 -4.69340682 35.7640618 -4.70538712 31.31834412 C-4.71260454 27.90749279 -4.71031834 24.49669898 -4.70513153 21.08584595 C-4.70379471 19.44633964 -4.7054439 17.80682815 -4.71009064 16.16732788 C-4.715154 13.87833774 -4.70744862 11.58974192 -4.69628906 9.30078125 C-4.69469788 7.99665283 -4.69310669 6.69252441 -4.69146729 5.34887695 C-4.37797968 1.6008882 -3.8054769 0.48788165 0 0 Z " fill="#F4F2F0" transform="translate(407.4375,427.6875)"/>
<path d="M0 0 C6.21052632 0.21052632 6.21052632 0.21052632 8 2 C8.16251531 5.90036748 7.75021201 7.98119357 5.41796875 11.1484375 C-6.15691925 23.38904262 -24.69464509 34.14919743 -41.82421875 35.16796875 C-42.76910156 35.17441406 -43.71398437 35.18085937 -44.6875 35.1875 C-45.64011719 35.20167969 -46.59273438 35.21585938 -47.57421875 35.23046875 C-50 35 -50 35 -52 33 C-52.55562281 27.77714562 -52.55562281 27.77714562 -50.8046875 25.328125 C-48.38044291 23.54404889 -46.80648048 23.69988888 -43.8125 23.6875 C-29.36210642 22.81171857 -14.13149449 15.24102416 -4 5 C-3.34 4.030625 -2.68 3.06125 -2 2.0625 C-1.34 1.381875 -0.68 0.70125 0 0 Z " fill="#EEEDEF" transform="translate(556,514)"/>
<path d="M0 0 C3.3 0 6.6 0 10 0 C10 13.2 10 26.4 10 40 C18.25 40 26.5 40 35 40 C35 42.64 35 45.28 35 48 C23.45 48 11.9 48 0 48 C0 32.16 0 16.32 0 0 Z " fill="#3F3F6E" transform="translate(464,690)"/>
<path d="M0 0 C21.80405595 1.64859935 37.53388169 10.64269727 52.453125 26.1171875 C53.83437518 28.87968786 53.64391806 31.06449849 53.453125 34.1171875 C51.453125 36.1171875 51.453125 36.1171875 49.20703125 36.62109375 C45.07347933 35.8647417 43.08324521 33.05369525 40.390625 30.0546875 C29.01291219 18.09611592 15.80993134 12.93558724 -0.40234375 10.609375 C-2.546875 10.1171875 -2.546875 10.1171875 -4.546875 8.1171875 C-4.796875 5.1171875 -4.796875 5.1171875 -4.546875 2.1171875 C-2.546875 0.1171875 -2.546875 0.1171875 0 0 Z " fill="#EEEDEE" transform="translate(508.546875,392.8828125)"/>
<path d="M0 0 C1.98 0 3.96 0 6 0 C6.20753906 0.61488281 6.41507813 1.22976563 6.62890625 1.86328125 C8.35419581 6.69048151 8.35419581 6.69048151 11.82421875 10.265625 C13.93716815 11.18177812 13.93716815 11.18177812 17 12 C17 14.31 17 16.62 17 19 C12.24932244 19.33144262 9.95390153 18.56633131 6 16 C6.03927612 17.17973389 6.03927612 17.17973389 6.0793457 18.38330078 C6.18359476 21.96366216 6.2484175 25.54370381 6.3125 29.125 C6.35439453 30.3625 6.39628906 31.6 6.43945312 32.875 C6.57761529 43.15426481 6.57761529 43.15426481 3.66796875 46.8046875 C-0.55732451 50.28142954 -4.32524928 50.40932154 -9.61328125 50.33984375 C-12 50 -12 50 -14.625 47.9375 C-16.37452424 44.19988003 -16.72840345 42.07905929 -16 38 C-13.40710252 34.95334546 -11.84936724 33.29795361 -7.890625 32.66015625 C-5.00719137 32.61280059 -2.60580502 32.69709749 0 34 C0 22.78 0 11.56 0 0 Z " fill="#383968" transform="translate(506,439)"/>
<path d="M0 0 C2.4375 0.75 2.4375 0.75 4.4375 1.75 C4.48808332 8.9765322 4.52318412 16.20301899 4.54736328 23.4296875 C4.55743983 25.88966579 4.57110131 28.34963206 4.58837891 30.80957031 C4.61255461 34.33922285 4.6239664 37.86871747 4.6328125 41.3984375 C4.64313507 42.50367767 4.65345764 43.60891785 4.66409302 44.74765015 C4.66424408 45.76855743 4.66439514 46.78946472 4.66455078 47.84130859 C4.668992 48.74287689 4.67343323 49.64444519 4.67800903 50.57333374 C4.4375 52.75 4.4375 52.75 2.4375 54.75 C-0.35577533 55.10811222 -1.90146992 55.24301339 -4.19839478 53.52990723 C-5.97345177 51.21378328 -5.94258306 49.86000127 -5.95068359 46.95898438 C-5.96014008 45.9878772 -5.96959656 45.01677002 -5.9793396 44.01623535 C-5.97326691 42.96931519 -5.96719421 41.92239502 -5.9609375 40.84375 C-5.96380768 39.76750366 -5.96667786 38.69125732 -5.96963501 37.58239746 C-5.97167725 35.30606561 -5.96613629 33.02971628 -5.95361328 30.75341797 C-5.93756255 27.26359927 -5.95345728 23.77493881 -5.97265625 20.28515625 C-5.97067385 18.07551827 -5.96683024 15.86588101 -5.9609375 13.65625 C-5.96701019 12.60932983 -5.97308289 11.56240967 -5.9793396 10.48376465 C-5.96988312 9.51265747 -5.96042664 8.54155029 -5.95068359 7.54101562 C-5.94829681 6.68624634 -5.94591003 5.83147705 -5.94345093 4.95080566 C-5.29949159 1.23056443 -3.78981536 -0.36973808 0 0 Z " fill="#EBECEC" transform="translate(654.5625,440.25)"/>
<path d="M0 0 C2.64 0 5.28 0 8 0 C9.37864791 2.17506596 10.72664879 4.36135619 12.0625 6.5625 C12.45244141 7.17158203 12.84238281 7.78066406 13.24414062 8.40820312 C15.95771336 12.94683363 16.30734413 15.68164193 15 21 C12.5625 20.625 12.5625 20.625 10 20 C9.67 19.34 9.34 18.68 9 18 C8.67 27.9 8.34 37.8 8 48 C5.36 48 2.72 48 0 48 C0 32.16 0 16.32 0 0 Z " fill="#312F62" transform="translate(349,690)"/>
<path d="M0 0 C2.9375 0.8125 2.9375 0.8125 4.9375 2.8125 C5.149612 5.57410397 5.24147075 8.23288052 5.23828125 10.99609375 C5.24256638 11.8074025 5.2468515 12.61871124 5.25126648 13.4546051 C5.257014 15.17195705 5.25750694 16.88933335 5.25317383 18.60668945 C5.2500165 21.2362622 5.27345748 23.86470731 5.29882812 26.49414062 C5.30110132 28.16145691 5.30180452 29.82877623 5.30078125 31.49609375 C5.309991 32.28366562 5.31920074 33.07123749 5.32868958 33.88267517 C5.28265309 39.30824472 5.28265309 39.30824472 3.57104492 41.80883789 C1.20726489 43.26116187 -0.34417532 43.2202487 -3.0625 42.8125 C-4.69384766 41.80664062 -4.69384766 41.80664062 -6.0625 39.8125 C-6.36080052 36.97733182 -6.48288555 34.36637076 -6.4609375 31.53125 C-6.46380768 30.7213562 -6.46667786 29.9114624 -6.46963501 29.07702637 C-6.47167542 27.36563416 -6.46614709 25.65421862 -6.45361328 23.94287109 C-6.43755857 21.3220611 -6.45346194 18.70279323 -6.47265625 16.08203125 C-6.47067381 14.41926743 -6.46683013 12.75650456 -6.4609375 11.09375 C-6.46701019 10.30931519 -6.47308289 9.52488037 -6.4793396 8.7166748 C-6.40978432 3.34099273 -6.40978432 3.34099273 -4.72900391 0.78320312 C-3.0625 -0.1875 -3.0625 -0.1875 0 0 Z " fill="#E2E2E7" transform="translate(566.0625,447.1875)"/>
<path d="M0 0 C2.5625 0.3125 2.5625 0.3125 4.19995117 1.32592773 C6.34063511 4.44700733 5.96971307 7.75766598 5.92578125 11.41015625 C5.92627975 12.20022568 5.92677826 12.9902951 5.92729187 13.80430603 C5.92495308 15.47283445 5.91523594 17.14136651 5.89868164 18.80981445 C5.87505565 21.36897164 5.87812592 23.92708937 5.88476562 26.48632812 C5.87918992 28.10677707 5.87208071 29.72722161 5.86328125 31.34765625 C5.86464836 32.49923973 5.86464836 32.49923973 5.86604309 33.67408752 C5.79354034 39.08145966 5.79354034 39.08145966 3.5625 41.3125 C-0.0625 41.4375 -0.0625 41.4375 -3.4375 41.3125 C-5.04099894 38.10550212 -4.6005236 34.61648791 -4.60546875 31.09375 C-4.60879715 30.28006958 -4.61212555 29.46638916 -4.61555481 28.62805176 C-4.62062075 26.9064999 -4.62296324 25.18493821 -4.62280273 23.46337891 C-4.62499123 20.82307877 -4.64315567 18.18319503 -4.66210938 15.54296875 C-4.66504291 13.87239727 -4.66702797 12.20182379 -4.66796875 10.53125 C-4.67874702 9.34215027 -4.67874702 9.34215027 -4.68974304 8.12902832 C-4.65817963 0.59720252 -4.65817963 0.59720252 0 0 Z " fill="#F3F0EE" transform="translate(386.4375,445.6875)"/>
<path d="M0 0 C3.5578125 -0.0928125 3.5578125 -0.0928125 7.1875 -0.1875 C8.29387817 -0.22846802 8.29387817 -0.22846802 9.42260742 -0.27026367 C13.85121619 -0.32588293 16.47361597 0.33748335 20 3 C22 5 22 5 22.375 8.3125 C21.93995916 12.59040162 21.04675444 14.03787763 18 17 C12.79346012 20.48307876 5.95478262 19.11027375 0 19 C0 12.73 0 6.46 0 0 Z " fill="#EDECEF" transform="translate(424,698)"/>
<path d="M0 0 C2.97 0 5.94 0 9 0 C11.76598023 5.01333916 13.42709844 8.162988 13 14 C13.33 14.33 13.66 14.66 14 15 C14.04080783 16.99958364 14.04254356 19.00045254 14 21 C12.35 21 10.7 21 9 21 C7.35 17.7 5.7 14.4 4 11 C2.35 14.3 0.7 17.6 -1 21 C-1.66 21 -2.32 21 -3 21 C-2.34 17.7 -1.68 14.4 -1 11 C-2.32 12.32 -3.64 13.64 -5 15 C-4.56826496 8.84777564 -3.34594658 5.18082051 0 0 Z " fill="#2D2B5E" transform="translate(312,690)"/>
<path d="M0 0 C2.57256972 3.12920761 4.09936527 6.25611109 5.625 10 C6.05039062 11.03125 6.47578125 12.0625 6.9140625 13.125 C8 16 8 16 9 20 C3.39 20 -2.22 20 -8 20 C-7.11298809 15.56494046 -5.80059296 11.84380097 -4 7.75 C-3.72671875 7.11320313 -3.4534375 6.47640625 -3.171875 5.8203125 C-1.14074248 1.14074248 -1.14074248 1.14074248 0 0 Z " fill="#E5E5E9" transform="translate(316,700)"/>
<path d="M0 0 C0.66 0 1.32 0 2 0 C3.33934716 2.95564708 4.67044247 5.9149378 6 8.875 C6.3815625 9.71675781 6.763125 10.55851563 7.15625 11.42578125 C7.5171875 12.23144531 7.878125 13.03710938 8.25 13.8671875 C8.58515625 14.61081543 8.9203125 15.35444336 9.265625 16.12060547 C10 18 10 18 10 20 C4.39 20 -1.22 20 -7 20 C-6.16768214 15.83841068 -5.15770113 12.7204811 -3.5 8.875 C-2.23499508 5.92577341 -1.01494232 3.04482696 0 0 Z " fill="#DEDEE5" transform="translate(645,700)"/>
<path d="M0 0 C0.59425781 0.27714844 1.18851563 0.55429687 1.80078125 0.83984375 C8.23635416 3.65227919 13.99798181 4.73376357 21 5 C20.67 7.31 20.34 9.62 20 12 C20.66 12.33 21.32 12.66 22 13 C13.86261047 13.45916305 6.05515225 13.63665178 -1 9 C-2.35546875 7.03125 -2.35546875 7.03125 -3 5 C-1.625 2.25 -1.625 2.25 0 0 Z " fill="#3F3F6E" transform="translate(253,726)"/>
<path d="M0 0 C2.24767593 3.3715139 3.92054736 6.90069828 5.625 10.5625 C6.11226562 11.59020508 6.11226562 11.59020508 6.609375 12.63867188 C9 17.75641741 9 17.75641741 9 20 C5.7 20 2.4 20 -1 20 C-4 12.375 -4 12.375 -4 9 C-12.25 9 -20.5 9 -29 9 C-29.33 9.99 -29.66 10.98 -30 12 C-30.33 10.68 -30.66 9.36 -31 8 C-21.76 7.67 -12.52 7.34 -3 7 C-2.01 4.69 -1.02 2.38 0 0 Z " fill="#474A76" transform="translate(663,718)"/>
<path d="M0 0 C2.5625 0.25 2.5625 0.25 5.5625 2.25 C5.9609375 4.96484375 5.9609375 4.96484375 5.9375 8.1875 C5.94523437 9.24839844 5.95296875 10.30929687 5.9609375 11.40234375 C5.5625 14.25 5.5625 14.25 4.19921875 16.109375 C1.89086727 17.71805909 0.30976676 17.60221369 -2.4375 17.25 C-4.4375 15.25 -4.4375 15.25 -4.703125 12.28125 C-4.69796875 11.1159375 -4.6928125 9.950625 -4.6875 8.75 C-4.69265625 7.5846875 -4.6978125 6.419375 -4.703125 5.21875 C-4.37216648 1.51980185 -3.77853349 0.3875419 0 0 Z " fill="#F2EFEC" transform="translate(365.4375,457.75)"/>
<path d="M0 0 C1.00460531 2.12282669 2.00355602 4.24833021 3 6.375 C3.556875 7.55835938 4.11375 8.74171875 4.6875 9.9609375 C6 13 6 13 6 15 C2.7 15 -0.6 15 -4 15 C-6.62355658 7.94919169 -6.62355658 7.94919169 -6 4 C-2.75675676 0 -2.75675676 0 0 0 Z " fill="#333461" transform="translate(336,723)"/>
<path d="M0 0 C2.48982535 2.27745789 4.10368997 4.62335238 5.75 7.5625 C6.19859375 8.34753906 6.6471875 9.13257813 7.109375 9.94140625 C7.40328125 10.62074219 7.6971875 11.30007813 8 12 C7 14 7 14 2 18 C-0.31 13.38 -2.62 8.76 -5 4 C-3.68 4.33 -2.36 4.66 -1 5 C-0.67 3.35 -0.34 1.7 0 0 Z " fill="#3F3A6D" transform="translate(365,706)"/>
<path d="M0 0 C2.33333333 2.33333333 4.66666667 4.66666667 7 7 C0.213162 11.04599958 -4.26524137 12.15419776 -12.25 12.0625 C-12.99507813 12.05798828 -13.74015625 12.05347656 -14.5078125 12.04882812 C-16.3385764 12.03709246 -18.16929873 12.0191585 -20 12 C-20 11.67 -20 11.34 -20 11 C-15.05 11 -10.1 11 -5 11 C-5.33 8.69 -5.66 6.38 -6 4 C-4.02 2.68 -2.04 1.36 0 0 Z " fill="#3F3D73" transform="translate(444,712)"/>
<path d="M0 0 C0.99 0.66 1.98 1.32 3 2 C3.375 5 3.375 5 3 8 C-0.45245824 10.30163882 -1.94738713 10.34490322 -6 10 C-8 8 -8 8 -8.3125 5.5625 C-8 3 -8 3 -6.8125 1.1875 C-4.37235669 -0.41121458 -2.86722793 -0.35840349 0 0 Z " fill="#EEEDED" transform="translate(512,515)"/>
<path d="M0 0 C0.309375 0.8971875 0.309375 0.8971875 0.625 1.8125 C2.50926082 4.81018767 4.81132084 5.61361776 8 7 C7.34 7.66 6.68 8.32 6 9 C4.68 9 3.36 9 2 9 C2 10.65 2 12.3 2 14 C-1.78383679 13.07506212 -3.56693694 12.60628829 -5.875 9.375 C-6.24625 8.59125 -6.6175 7.8075 -7 7 C-3.375 4 -3.375 4 0 4 C0 2.68 0 1.36 0 0 Z " fill="#3A386B" transform="translate(259,702)"/>
<path d="M0 0 C2.96052484 3.36423277 3.92289822 6.69159287 5 11 C3.35 11.33 1.7 11.66 0 12 C-0.33 12.99 -0.66 13.98 -1 15 C-3.15377564 12.37801226 -4.40072174 10.35595828 -5 7 C-2.525 7.495 -2.525 7.495 0 8 C-0.185625 7.05125 -0.37125 6.1025 -0.5625 5.125 C-1 2 -1 2 0 0 Z " fill="#38376B" transform="translate(653,696)"/>
<path d="M0 0 C1.55938978 3.11877956 1.3607834 5.57255771 1 9 C-1.39740918 10.95578117 -2.87586608 12 -6 12 C-6.08131463 10.56344146 -6.13933559 9.1255517 -6.1875 7.6875 C-6.22230469 6.88699219 -6.25710937 6.08648438 -6.29296875 5.26171875 C-6 3 -6 3 -4.67578125 1.20703125 C-3 0 -3 0 0 0 Z " fill="#242155" transform="translate(258,697)"/>
<path d="M0 0 C1.98 0.99 3.96 1.98 6 3 C5.67 4.32 5.34 5.64 5 7 C1.71303767 7.79953138 0.28976808 8.09658936 -3 7 C-1.125 1.125 -1.125 1.125 0 0 Z " fill="#353664" transform="translate(253,726)"/>
<path d="M0 0 C2.01635978 3.02453967 3.03246502 5.63075348 4.1875 9.0625 C4.55230469 10.12597656 4.91710937 11.18945312 5.29296875 12.28515625 C6 15 6 15 5 17 C4.67 16.01 4.34 15.02 4 14 C3.01 14.33 2.02 14.66 1 15 C0.63536268 13.25215171 0.2836922 11.50159498 -0.0625 9.75 C-0.25972656 8.77546875 -0.45695313 7.8009375 -0.66015625 6.796875 C-0.98397535 4.131881 -0.85503199 2.51128277 0 0 Z " fill="#474570" transform="translate(591,698)"/>
<path d="M0 0 C0.66 0.99 1.32 1.98 2 3 C1.34 3 0.68 3 0 3 C-0.12375 3.763125 -0.2475 4.52625 -0.375 5.3125 C-1 8 -1 8 -3 11 C-1.02 10.67 0.96 10.34 3 10 C2.34 11.32 1.68 12.64 1 14 C0.67 13.34 0.34 12.68 0 12 C-0.33 12.66 -0.66 13.32 -1 14 C-2.65 13.67 -4.3 13.34 -6 13 C-4.31326082 8.50202887 -2.18326108 4.27113698 0 0 Z " fill="#3B3970" transform="translate(387,699)"/>
<path d="M0 0 C0.66 0 1.32 0 2 0 C2.33 0.66 2.66 1.32 3 2 C4.65 1.67 6.3 1.34 8 1 C7.01 3.97 6.02 6.94 5 10 C4.34 10 3.68 10 3 10 C2.01 6.7 1.02 3.4 0 0 Z " fill="#DBDCE2" transform="translate(564,714)"/>
<path d="M0 0 C0 0.33 0 0.66 0 1 C-1.5778125 1.37125 -1.5778125 1.37125 -3.1875 1.75 C-6.84298751 2.81031382 -9.30887106 4.22972021 -12 7 C-12.87943404 9.63460948 -12.87943404 9.63460948 -13 12 C-13.33 12 -13.66 12 -14 12 C-14.375 8.8125 -14.375 8.8125 -14 5 C-9.61311241 -0.15459292 -6.59394479 -0.56844352 0 0 Z " fill="#494975" transform="translate(504,472)"/>
<path d="M0 0 C0 0.33 0 0.66 0 1 C-0.59167969 1.02578125 -1.18335938 1.0515625 -1.79296875 1.078125 C-7.05994675 1.45617889 -10.17381203 2.05786694 -14 6 C-14.66 6.99 -15.32 7.98 -16 9 C-16.3125 6.75 -16.3125 6.75 -16 4 C-11.80364529 -1.35396981 -6.19337105 -0.39047523 0 0 Z " fill="#C8C7D4" transform="translate(276,697)"/>
<path d="M0 0 C0.33 0 0.66 0 1 0 C2.06107228 9.46543847 2.06107228 9.46543847 -0.453125 13.1015625 C-2.26272036 14.70586763 -3.79549135 15.99923805 -6 17 C-6.99 16.67 -7.98 16.34 -9 16 C-8.05125 15.4225 -7.1025 14.845 -6.125 14.25 C-2.4853397 11.62944458 -1.38045902 10.32751399 -0.66796875 5.96875 C-0.40589449 3.98397426 -0.19920678 1.99206785 0 0 Z " fill="#C7C6D1" transform="translate(288,721)"/>
<path d="M0 0 C0.99 0 1.98 0 3 0 C3.33 1.65 3.66 3.3 4 5 C2.02 5 0.04 5 -2 5 C-2 2 -2 2 0 0 Z " fill="#303564" transform="translate(667,732)"/>
<path d="M0 0 C0.66 1.32 1.32 2.64 2 4 C1.38125 4.28875 0.7625 4.5775 0.125 4.875 C-2.13325765 5.93720042 -2.13325765 5.93720042 -4 8 C-4.66 6.35 -5.32 4.7 -6 3 C-5.01 3 -4.02 3 -3 3 C-2.67 2.34 -2.34 1.68 -2 1 C-1.34 1.33 -0.68 1.66 0 2 C0 1.34 0 0.68 0 0 Z " fill="#444074" transform="translate(371,716)"/>
<path d="M0 0 C2 1 2 1 2.6328125 2.84765625 C2.79523437 3.57855469 2.95765625 4.30945313 3.125 5.0625 C3.29257812 5.79597656 3.46015625 6.52945313 3.6328125 7.28515625 C3.75398437 7.85105469 3.87515625 8.41695312 4 9 C3.34 8.67 2.68 8.34 2 8 C2 7.34 2 6.68 2 6 C0.68 6 -0.64 6 -2 6 C-1.34 4.02 -0.68 2.04 0 0 Z " fill="#BFBECF" transform="translate(584,704)"/>
<path d="M0 0 C0.66 0.33 1.32 0.66 2 1 C0.7934375 2.2375 0.7934375 2.2375 -0.4375 3.5 C-3.55500586 7.18112274 -3.75501064 10.26353911 -4 15 C-4.33 15 -4.66 15 -5 15 C-5.76681614 7.33183857 -5.76681614 7.33183857 -3.88671875 4.06640625 C-2.5 2.4375 -2.5 2.4375 0 0 Z " fill="#59587F" transform="translate(256,693)"/>
<path d="M0 0 C0.33 0.99 0.66 1.98 1 3 C-1.64 5.31 -4.28 7.62 -7 10 C-7.66 9.67 -8.32 9.34 -9 9 C-8.2575 8.443125 -7.515 7.88625 -6.75 7.3125 C-4.08292005 5.06972822 -2.08443768 2.77925025 0 0 Z " fill="#4C4E7C" transform="translate(537,489)"/>
<path d="M0 0 C0 0.33 0 0.66 0 1 C-1.0725 1.226875 -2.145 1.45375 -3.25 1.6875 C-7.37218701 3.13026545 -8.64414523 4.41910075 -11 8 C-11.21620175 5.3335118 -11.30894168 3.55995679 -10 1.1875 C-6.76011038 -0.73618446 -3.7174181 -0.18282384 0 0 Z " fill="#CFCBD5" transform="translate(515,612)"/>
<path d="M0 0 C1.32 1.32 2.64 2.64 4 4 C3.67 4.99 3.34 5.98 3 7 C2.01 7.33 1.02 7.66 0 8 C0 5.36 0 2.72 0 0 Z " fill="#DBDEE6" transform="translate(358,709)"/>
<path d="M0 0 C1.5625 1.75 1.5625 1.75 3 4 C2.6875 6.25 2.6875 6.25 2 8 C1.34 8 0.68 8 0 8 C-1.125 2.25 -1.125 2.25 0 0 Z " fill="#484878" transform="translate(653,696)"/>
<path d="M0 0 C0.886875 0.12375 1.77375 0.2475 2.6875 0.375 C1.6975 1.035 0.7075 1.695 -0.3125 2.375 C-2.34385683 4.00601643 -4.32181873 5.69398026 -6.3125 7.375 C-6.9725 7.045 -7.6325 6.715 -8.3125 6.375 C-4.12788462 0.46730769 -4.12788462 0.46730769 0 0 Z " fill="#D4D3DC" transform="translate(596.3125,548.625)"/>
<path d="M0 0 C0.66 0.99 1.32 1.98 2 3 C1.34 3 0.68 3 0 3 C-0.0825 3.763125 -0.165 4.52625 -0.25 5.3125 C-1.14615794 8.52373261 -2.21611025 9.29374499 -5 11 C-3.55049545 7.2089881 -1.84827434 3.6125362 0 0 Z " fill="#535381" transform="translate(387,699)"/>
<path d="M0 0 C2.45823172 3.68734758 3.01242616 6.69699971 4 11 C1.4375 8.875 1.4375 8.875 -1 6 C-0.8125 2.6875 -0.8125 2.6875 0 0 Z " fill="#636084" transform="translate(591,698)"/>
<path d="M0 0 C0.66 0.33 1.32 0.66 2 1 C0.02 3.31 -1.96 5.62 -4 8 C-4.66 7.34 -5.32 6.68 -6 6 C-4.02 4.02 -2.04 2.04 0 0 Z " fill="#CFD1DA" transform="translate(574,532)"/>
<path d="M0 0 C0.33 0 0.66 0 1 0 C1.25 3.25 1.25 3.25 1 7 C-0.32 8.32 -1.64 9.64 -3 11 C-2.01 7.37 -1.02 3.74 0 0 Z " fill="#5A5681" transform="translate(576,701)"/>
<path d="M0 0 C2.97 0 5.94 0 9 0 C9 0.33 9 0.66 9 1 C7.88625 1.103125 6.7725 1.20625 5.625 1.3125 C4.42875 1.539375 3.2325 1.76625 2 2 C1.01 3.485 1.01 3.485 0 5 C-0.66 5 -1.32 5 -2 5 C-1.34 3.35 -0.68 1.7 0 0 Z " fill="#52527E" transform="translate(312,690)"/>
<path d="M0 0 C1.2065625 0.0309375 1.2065625 0.0309375 2.4375 0.0625 C-0.44337546 2.46322955 -3.12654834 4.53541037 -6.5625 6.0625 C-3.03077411 0.07392132 -3.03077411 0.07392132 0 0 Z " fill="#CECFD7" transform="translate(558.5625,513.9375)"/>
<path d="M0 0 C3 3.625 3 3.625 3 7 C2.34 7 1.68 7 1 7 C1 6.01 1 5.02 1 4 C0.01 4.33 -0.98 4.66 -2 5 C-1.34 3.35 -0.68 1.7 0 0 Z " fill="#C7C8D9" transform="translate(316,700)"/>
</svg>
